<svg width="84" height="25" viewBox="0 0 84 25" fill="none" xmlns="http://www.w3.org/2000/svg">
<rect width="3" height="26.9034" rx="1.5" transform="matrix(0.999197 0.0400601 -0.458586 0.88865 80.3827 0.486046)" fill="#D42424"/>
<path d="M82.7568 9.59201V15.064C82.7568 17.6453 82.1062 19.6827 80.8048 21.176C79.5035 22.6693 77.7222 23.416 75.4608 23.416C73.1995 23.416 71.4075 22.6693 70.0848 21.176C68.7835 19.6613 68.1328 17.624 68.1328 15.064V9.59201C68.1328 6.98935 68.7835 4.95201 70.0848 3.48001C71.3862 1.98668 73.1782 1.24001 75.4608 1.24001C77.7008 1.24001 79.4715 1.99735 80.7728 3.51201C82.0955 5.00535 82.7568 7.03201 82.7568 9.59201ZM70.9488 9.46401V15.128C70.9488 16.9627 71.3328 18.3707 72.1008 19.352C72.8688 20.3333 73.9888 20.824 75.4608 20.824C76.2075 20.824 76.8902 20.6533 77.5088 20.312C78.1488 19.9707 78.6502 19.5333 79.0128 19C79.3755 18.4667 79.6208 17.9227 79.7488 17.368C79.8768 16.792 79.9408 16.0453 79.9408 15.128V9.46401C79.9408 8.41868 79.8555 7.58668 79.6848 6.96801C79.5142 6.34935 79.0982 5.66668 78.4368 4.92001C77.7968 4.15201 76.8048 3.76801 75.4608 3.76801C72.4528 3.76801 70.9488 5.66668 70.9488 9.46401Z" fill="white"/>
<path d="M64.4443 19.864C64.9563 19.864 65.3937 20.0453 65.7563 20.408C66.119 20.7707 66.3003 21.208 66.3003 21.72C66.3003 22.232 66.119 22.6693 65.7563 23.032C65.3937 23.3947 64.9563 23.576 64.4443 23.576C63.9323 23.576 63.495 23.3947 63.1323 23.032C62.7697 22.6693 62.5883 22.232 62.5883 21.72C62.5883 21.208 62.7697 20.7707 63.1323 20.408C63.495 20.0453 63.9323 19.864 64.4443 19.864Z" fill="white"/>
<path d="M48.7837 23.288V21.048H54.5117H54.8317C55.6637 21.048 56.1864 21.0373 56.3997 21.016C56.6131 20.9733 56.8904 20.8667 57.2317 20.696C57.5944 20.504 57.7757 20.088 57.7757 19.448C57.7757 18.7227 57.3384 18.2107 56.4637 17.912L51.0557 15.992C50.0317 15.6293 49.2957 15.1813 48.8477 14.648C48.4211 14.0933 48.2077 13.3573 48.2077 12.44C48.2077 9.98668 49.9784 8.76001 53.5197 8.76001H59.3437V11H53.1357C51.5784 11 50.7997 11.544 50.7997 12.632C50.7997 13.3147 51.2477 13.8053 52.1437 14.104L57.1997 15.896C58.3944 16.3013 59.2264 16.7813 59.6957 17.336C60.1864 17.8693 60.4317 18.5947 60.4317 19.512C60.4317 22.0293 58.8211 23.288 55.5997 23.288H48.7837Z" fill="white"/>
<path d="M43.8752 9.00808H46.4352V17.2641C46.4352 19.2481 45.8592 20.8374 44.7072 22.0321C43.5552 23.2267 42.0298 23.8241 40.1312 23.8241C38.2538 23.8241 36.7392 23.2267 35.5872 22.0321C34.4352 20.8374 33.8592 19.2481 33.8592 17.2641V9.00808H36.4192V16.6561C36.4192 18.1281 36.7392 19.2694 37.3792 20.0801C38.0192 20.8907 38.9258 21.2961 40.0992 21.2961C40.7605 21.2961 41.3578 21.1467 41.8912 20.8481C42.4458 20.5494 42.9152 20.1014 43.2992 19.5041C43.6832 18.8854 43.8752 17.8614 43.8752 16.4321V9.00808Z" fill="white"/>
<path d="M31.1504 23.288H28.5904V16.92C28.5904 15.128 28.1317 13.6987 27.2144 12.632C26.3184 11.544 25.1024 11 23.5664 11C22.1797 11 21.0064 11.4907 20.0464 12.472C19.0864 13.4533 18.6064 14.648 18.6064 16.056C18.6064 17.464 19.0864 18.648 20.0464 19.608C21.0064 20.568 22.201 21.048 23.6304 21.048C24.9104 21.048 26.2117 20.4613 27.5344 19.288V22.008C26.8517 22.584 26.1904 22.9893 25.5504 23.224C24.9104 23.4587 24.1637 23.576 23.3104 23.576C21.2624 23.576 19.5237 22.8507 18.0944 21.4C16.665 19.9493 15.9504 18.168 15.9504 16.056C15.9504 13.9653 16.6864 12.184 18.1584 10.712C19.6517 9.21867 21.465 8.47201 23.5984 8.47201C25.7744 8.47201 27.577 9.21867 29.0064 10.712C30.4357 12.2053 31.1504 14.104 31.1504 16.408V23.288Z" fill="white"/>
<path d="M13.2143 23.288H10.6544V15.416C10.6544 12.4507 9.48102 10.968 7.13435 10.968C5.93968 10.968 4.99035 11.416 4.28635 12.312C3.58235 13.208 3.23035 14.4347 3.23035 15.992V23.288H0.670349V1.94401H3.23035V10.936C4.25435 9.27201 5.77968 8.44001 7.80635 8.44001C9.44902 8.44001 10.761 9.01601 11.7423 10.168C12.7237 11.32 13.2143 12.8667 13.2143 14.808V23.288Z" fill="white"/>
</svg>
